<mxfile host="65bd71144e" modified="2020-11-29T09:19:33.156Z" agent="5.0 (Macintosh; Intel Mac OS X 10_15_7) AppleWebKit/537.36 (KHTML, like Gecko) Code/1.51.0 Chrome/83.0.4103.122 Electron/9.3.3 Safari/537.36" etag="uRisi_eBl5UsLBJhZx_o" version="13.6.5">
    <diagram id="B5n3ILhewDX3VoMBAIgb" name="Page-1">
        <mxGraphModel dx="936" dy="798" grid="1" gridSize="10" guides="1" tooltips="1" connect="1" arrows="1" fold="1" page="1" pageScale="1" pageWidth="1169" pageHeight="827" math="0" shadow="0">
            <root>
                <mxCell id="0"/>
                <mxCell id="1" parent="0"/>
                <mxCell id="2" value="USER" style="rounded=1;whiteSpace=wrap;html=1;fillColor=#60a917;strokeColor=#2D7600;fontColor=#ffffff;" parent="1" vertex="1">
                    <mxGeometry x="260" y="384" width="120" height="60" as="geometry"/>
                </mxCell>
                <mxCell id="3" value="SONG" style="rounded=1;whiteSpace=wrap;html=1;fillColor=#f0a30a;strokeColor=#BD7000;fontColor=#ffffff;" parent="1" vertex="1">
                    <mxGeometry x="829" y="190" width="120" height="60" as="geometry"/>
                </mxCell>
                <mxCell id="85" style="edgeStyle=orthogonalEdgeStyle;rounded=0;orthogonalLoop=1;jettySize=auto;html=1;exitX=0.5;exitY=1;exitDx=0;exitDy=0;entryX=0.5;entryY=0;entryDx=0;entryDy=0;startArrow=none;startFill=0;endArrow=classic;endFill=1;" parent="1" source="4" target="76" edge="1">
                    <mxGeometry relative="1" as="geometry"/>
                </mxCell>
                <mxCell id="88" style="edgeStyle=orthogonalEdgeStyle;rounded=0;orthogonalLoop=1;jettySize=auto;html=1;exitX=1;exitY=0.75;exitDx=0;exitDy=0;entryX=0.5;entryY=0;entryDx=0;entryDy=0;startArrow=none;startFill=0;endArrow=classic;endFill=1;" parent="1" source="4" target="84" edge="1">
                    <mxGeometry relative="1" as="geometry"/>
                </mxCell>
                <mxCell id="98" style="edgeStyle=orthogonalEdgeStyle;rounded=0;orthogonalLoop=1;jettySize=auto;html=1;exitX=1;exitY=0.25;exitDx=0;exitDy=0;entryX=0;entryY=1;entryDx=0;entryDy=0;startArrow=none;startFill=0;endArrow=classic;endFill=1;" parent="1" source="4" target="91" edge="1">
                    <mxGeometry relative="1" as="geometry"/>
                </mxCell>
                <mxCell id="4" value="ALBUM" style="rounded=1;whiteSpace=wrap;html=1;fillColor=#d80073;strokeColor=#A50040;fontColor=#ffffff;" parent="1" vertex="1">
                    <mxGeometry x="525" y="384" width="120" height="60" as="geometry"/>
                </mxCell>
                <mxCell id="95" style="edgeStyle=orthogonalEdgeStyle;rounded=0;orthogonalLoop=1;jettySize=auto;html=1;exitX=1;exitY=0.75;exitDx=0;exitDy=0;entryX=0.5;entryY=0;entryDx=0;entryDy=0;startArrow=none;startFill=0;endArrow=classic;endFill=1;" parent="1" source="5" target="93" edge="1">
                    <mxGeometry relative="1" as="geometry"/>
                </mxCell>
                <mxCell id="96" style="edgeStyle=orthogonalEdgeStyle;rounded=0;orthogonalLoop=1;jettySize=auto;html=1;exitX=0.25;exitY=0;exitDx=0;exitDy=0;entryX=0.5;entryY=1;entryDx=0;entryDy=0;startArrow=none;startFill=0;endArrow=classic;endFill=1;" parent="1" source="5" target="89" edge="1">
                    <mxGeometry relative="1" as="geometry"/>
                </mxCell>
                <mxCell id="97" style="edgeStyle=orthogonalEdgeStyle;rounded=0;orthogonalLoop=1;jettySize=auto;html=1;exitX=0.75;exitY=0;exitDx=0;exitDy=0;entryX=0.229;entryY=0.958;entryDx=0;entryDy=0;entryPerimeter=0;startArrow=none;startFill=0;endArrow=classic;endFill=1;" parent="1" source="5" target="90" edge="1">
                    <mxGeometry relative="1" as="geometry"/>
                </mxCell>
                <mxCell id="5" value="PLAYLISTS" style="rounded=1;whiteSpace=wrap;html=1;fillColor=#1ba1e2;strokeColor=#006EAF;fontColor=#ffffff;" parent="1" vertex="1">
                    <mxGeometry x="525" y="560" width="120" height="60" as="geometry"/>
                </mxCell>
                <mxCell id="6" value="Name" style="ellipse;whiteSpace=wrap;html=1;" parent="1" vertex="1">
                    <mxGeometry x="110" y="329" width="120" height="40" as="geometry"/>
                </mxCell>
                <mxCell id="7" value="E-mail" style="ellipse;whiteSpace=wrap;html=1;" parent="1" vertex="1">
                    <mxGeometry x="70" y="393" width="120" height="40" as="geometry"/>
                </mxCell>
                <mxCell id="8" value="Password" style="ellipse;whiteSpace=wrap;html=1;" parent="1" vertex="1">
                    <mxGeometry x="110" y="459" width="120" height="40" as="geometry"/>
                </mxCell>
                <mxCell id="9" value="" style="endArrow=classic;html=1;entryX=0.95;entryY=0.775;entryDx=0;entryDy=0;entryPerimeter=0;" parent="1" source="2" target="6" edge="1">
                    <mxGeometry width="50" height="50" relative="1" as="geometry">
                        <mxPoint x="530" y="520" as="sourcePoint"/>
                        <mxPoint x="580" y="470" as="targetPoint"/>
                    </mxGeometry>
                </mxCell>
                <mxCell id="10" value="" style="endArrow=classic;html=1;entryX=1;entryY=0.5;entryDx=0;entryDy=0;exitX=0;exitY=0.5;exitDx=0;exitDy=0;" parent="1" source="2" target="7" edge="1">
                    <mxGeometry width="50" height="50" relative="1" as="geometry">
                        <mxPoint x="276.66666666666674" y="394" as="sourcePoint"/>
                        <mxPoint x="234" y="370" as="targetPoint"/>
                    </mxGeometry>
                </mxCell>
                <mxCell id="11" value="" style="endArrow=classic;html=1;entryX=1;entryY=0;entryDx=0;entryDy=0;exitX=0.101;exitY=0.994;exitDx=0;exitDy=0;exitPerimeter=0;" parent="1" source="2" target="8" edge="1">
                    <mxGeometry width="50" height="50" relative="1" as="geometry">
                        <mxPoint x="286.66666666666674" y="404" as="sourcePoint"/>
                        <mxPoint x="244" y="380" as="targetPoint"/>
                    </mxGeometry>
                </mxCell>
                <mxCell id="12" value="" style="endArrow=ERmany;html=1;exitX=1;exitY=0.5;exitDx=0;exitDy=0;entryX=0;entryY=0.5;entryDx=0;entryDy=0;endFill=0;" parent="1" source="2" target="4" edge="1">
                    <mxGeometry width="50" height="50" relative="1" as="geometry">
                        <mxPoint x="430" y="450" as="sourcePoint"/>
                        <mxPoint x="480" y="400" as="targetPoint"/>
                    </mxGeometry>
                </mxCell>
                <mxCell id="13" value="" style="endArrow=ERmany;html=1;exitX=0.81;exitY=1.011;exitDx=0;exitDy=0;entryX=0;entryY=0.5;entryDx=0;entryDy=0;endFill=0;exitPerimeter=0;" parent="1" source="2" target="5" edge="1">
                    <mxGeometry width="50" height="50" relative="1" as="geometry">
                        <mxPoint x="380" y="629.5" as="sourcePoint"/>
                        <mxPoint x="525" y="629.5" as="targetPoint"/>
                        <Array as="points">
                            <mxPoint x="357" y="590"/>
                        </Array>
                    </mxGeometry>
                </mxCell>
                <mxCell id="14" value="" style="endArrow=ERmany;html=1;exitX=0.81;exitY=0.017;exitDx=0;exitDy=0;entryX=0;entryY=0.5;entryDx=0;entryDy=0;endFill=0;exitPerimeter=0;" parent="1" source="2" target="3" edge="1">
                    <mxGeometry width="50" height="50" relative="1" as="geometry">
                        <mxPoint x="357.20000000000005" y="10.000000000000057" as="sourcePoint"/>
                        <mxPoint x="525" y="194.83999999999997" as="targetPoint"/>
                        <Array as="points">
                            <mxPoint x="357" y="220"/>
                        </Array>
                    </mxGeometry>
                </mxCell>
                <mxCell id="15" value="" style="endArrow=ERmany;html=1;exitX=1;exitY=0.5;exitDx=0;exitDy=0;endFill=0;entryX=0.25;entryY=1;entryDx=0;entryDy=0;" parent="1" target="3" edge="1">
                    <mxGeometry width="50" height="50" relative="1" as="geometry">
                        <mxPoint x="645" y="413" as="sourcePoint"/>
                        <mxPoint x="910" y="413" as="targetPoint"/>
                        <Array as="points">
                            <mxPoint x="859" y="413"/>
                        </Array>
                    </mxGeometry>
                </mxCell>
                <mxCell id="16" value="" style="endArrow=ERmany;html=1;exitX=1;exitY=0.5;exitDx=0;exitDy=0;endFill=0;entryX=0.5;entryY=1;entryDx=0;entryDy=0;" parent="1" source="5" target="3" edge="1">
                    <mxGeometry width="50" height="50" relative="1" as="geometry">
                        <mxPoint x="700" y="414" as="sourcePoint"/>
                        <mxPoint x="930" y="231" as="targetPoint"/>
                        <Array as="points">
                            <mxPoint x="889" y="590"/>
                        </Array>
                    </mxGeometry>
                </mxCell>
                <mxCell id="17" value="Title" style="ellipse;whiteSpace=wrap;html=1;" parent="1" vertex="1">
                    <mxGeometry x="979" y="40" width="120" height="40" as="geometry"/>
                </mxCell>
                <mxCell id="18" value="Audio File" style="ellipse;whiteSpace=wrap;html=1;" parent="1" vertex="1">
                    <mxGeometry x="979" y="100" width="120" height="40" as="geometry"/>
                </mxCell>
                <mxCell id="19" value="Img File" style="ellipse;whiteSpace=wrap;html=1;" parent="1" vertex="1">
                    <mxGeometry x="979" y="160" width="120" height="40" as="geometry"/>
                </mxCell>
                <mxCell id="20" value="Reproductions" style="ellipse;whiteSpace=wrap;html=1;" parent="1" vertex="1">
                    <mxGeometry x="979" y="220" width="120" height="40" as="geometry"/>
                </mxCell>
                <mxCell id="24" value="id_pistas" style="rhombus;whiteSpace=wrap;html=1;strokeColor=#6D1F00;fontColor=#ffffff;fillColor=#FF8000;" parent="1" vertex="1">
                    <mxGeometry x="849" y="80" width="80" height="80" as="geometry"/>
                </mxCell>
                <mxCell id="25" value="id_album" style="rhombus;whiteSpace=wrap;html=1;fillColor=#a20025;strokeColor=#6F0000;fontColor=#ffffff;" parent="1" vertex="1">
                    <mxGeometry x="545" y="270" width="80" height="80" as="geometry"/>
                </mxCell>
                <mxCell id="26" value="id_lists" style="rhombus;whiteSpace=wrap;html=1;fillColor=#0050ef;strokeColor=#001DBC;fontColor=#ffffff;" parent="1" vertex="1">
                    <mxGeometry x="545" y="660" width="80" height="80" as="geometry"/>
                </mxCell>
                <mxCell id="27" value="id_user" style="rhombus;whiteSpace=wrap;html=1;fillColor=#008a00;strokeColor=#005700;fontColor=#ffffff;" parent="1" vertex="1">
                    <mxGeometry x="250" y="249" width="80" height="80" as="geometry"/>
                </mxCell>
                <mxCell id="28" value="" style="endArrow=classic;html=1;exitX=0.25;exitY=0;exitDx=0;exitDy=0;" parent="1" source="2" edge="1">
                    <mxGeometry width="50" height="50" relative="1" as="geometry">
                        <mxPoint x="276.6666666666665" y="394" as="sourcePoint"/>
                        <mxPoint x="290" y="330" as="targetPoint"/>
                    </mxGeometry>
                </mxCell>
                <mxCell id="29" value="" style="endArrow=classic;html=1;exitX=0.5;exitY=0;exitDx=0;exitDy=0;entryX=0.5;entryY=1;entryDx=0;entryDy=0;" parent="1" source="4" target="25" edge="1">
                    <mxGeometry width="50" height="50" relative="1" as="geometry">
                        <mxPoint x="584" y="384" as="sourcePoint"/>
                        <mxPoint x="584" y="350" as="targetPoint"/>
                    </mxGeometry>
                </mxCell>
                <mxCell id="30" value="" style="endArrow=classic;html=1;exitX=0.5;exitY=1;exitDx=0;exitDy=0;entryX=0.5;entryY=0;entryDx=0;entryDy=0;" parent="1" source="5" target="26" edge="1">
                    <mxGeometry width="50" height="50" relative="1" as="geometry">
                        <mxPoint x="594" y="354" as="sourcePoint"/>
                        <mxPoint x="660" y="490" as="targetPoint"/>
                    </mxGeometry>
                </mxCell>
                <mxCell id="32" value="" style="endArrow=classic;html=1;entryX=0.5;entryY=1;entryDx=0;entryDy=0;exitX=0.5;exitY=0;exitDx=0;exitDy=0;" parent="1" source="3" target="24" edge="1">
                    <mxGeometry width="50" height="50" relative="1" as="geometry">
                        <mxPoint x="739" y="200" as="sourcePoint"/>
                        <mxPoint x="789" y="150" as="targetPoint"/>
                    </mxGeometry>
                </mxCell>
                <mxCell id="33" value="" style="endArrow=classic;html=1;entryX=0;entryY=0.5;entryDx=0;entryDy=0;exitX=0.583;exitY=0;exitDx=0;exitDy=0;exitPerimeter=0;" parent="1" source="3" target="17" edge="1">
                    <mxGeometry width="50" height="50" relative="1" as="geometry">
                        <mxPoint x="899" y="200.0000000000001" as="sourcePoint"/>
                        <mxPoint x="899" y="170" as="targetPoint"/>
                    </mxGeometry>
                </mxCell>
                <mxCell id="34" value="" style="endArrow=classic;html=1;entryX=0;entryY=0.5;entryDx=0;entryDy=0;exitX=0.693;exitY=-0.017;exitDx=0;exitDy=0;exitPerimeter=0;" parent="1" source="3" target="18" edge="1">
                    <mxGeometry width="50" height="50" relative="1" as="geometry">
                        <mxPoint x="908.96" y="200.0000000000001" as="sourcePoint"/>
                        <mxPoint x="988.9999999999918" y="70" as="targetPoint"/>
                    </mxGeometry>
                </mxCell>
                <mxCell id="35" value="" style="endArrow=classic;html=1;entryX=0;entryY=0.5;entryDx=0;entryDy=0;" parent="1" target="19" edge="1">
                    <mxGeometry width="50" height="50" relative="1" as="geometry">
                        <mxPoint x="939" y="190" as="sourcePoint"/>
                        <mxPoint x="988.9999999999918" y="130" as="targetPoint"/>
                    </mxGeometry>
                </mxCell>
                <mxCell id="36" value="" style="endArrow=classic;html=1;entryX=0.068;entryY=0.267;entryDx=0;entryDy=0;entryPerimeter=0;exitX=1;exitY=0.5;exitDx=0;exitDy=0;" parent="1" source="3" target="20" edge="1">
                    <mxGeometry width="50" height="50" relative="1" as="geometry">
                        <mxPoint x="949" y="200.0000000000001" as="sourcePoint"/>
                        <mxPoint x="988.9999999999918" y="190" as="targetPoint"/>
                    </mxGeometry>
                </mxCell>
                <mxCell id="40" value="" style="endArrow=ERmany;html=1;entryX=1;entryY=0.5;entryDx=0;entryDy=0;exitX=0.25;exitY=1;exitDx=0;exitDy=0;endFill=0;startArrow=ERmany;startFill=0;" parent="1" target="41" edge="1">
                    <mxGeometry width="50" height="50" relative="1" as="geometry">
                        <mxPoint x="317.9999999999998" y="444" as="sourcePoint"/>
                        <mxPoint x="317.9999999999998" y="680" as="targetPoint"/>
                        <Array as="points">
                            <mxPoint x="318" y="740"/>
                        </Array>
                    </mxGeometry>
                </mxCell>
                <mxCell id="41" value="FOLLOWERS" style="shape=parallelogram;perimeter=parallelogramPerimeter;whiteSpace=wrap;html=1;fixedSize=1;" parent="1" vertex="1">
                    <mxGeometry x="60" y="710" width="120" height="60" as="geometry"/>
                </mxCell>
                <mxCell id="43" value="" style="curved=1;endArrow=classic;html=1;exitX=-0.008;exitY=0.164;exitDx=0;exitDy=0;exitPerimeter=0;entryX=1;entryY=0;entryDx=0;entryDy=0;" parent="1" source="3" target="27" edge="1">
                    <mxGeometry width="50" height="50" relative="1" as="geometry">
                        <mxPoint x="540" y="310" as="sourcePoint"/>
                        <mxPoint x="590" y="260" as="targetPoint"/>
                        <Array as="points">
                            <mxPoint x="690" y="120"/>
                            <mxPoint x="380" y="150"/>
                        </Array>
                    </mxGeometry>
                </mxCell>
                <mxCell id="44" value="Social Media &lt;br&gt;Links" style="ellipse;whiteSpace=wrap;html=1;" parent="1" vertex="1">
                    <mxGeometry x="130" y="530" width="120" height="40" as="geometry"/>
                </mxCell>
                <mxCell id="46" value="" style="endArrow=classic;html=1;entryX=0.943;entryY=0.225;entryDx=0;entryDy=0;entryPerimeter=0;exitX=0.189;exitY=1.003;exitDx=0;exitDy=0;exitPerimeter=0;" parent="1" source="2" target="44" edge="1">
                    <mxGeometry width="50" height="50" relative="1" as="geometry">
                        <mxPoint x="275" y="440" as="sourcePoint"/>
                        <mxPoint x="222.42640687119297" y="474.85786437626916" as="targetPoint"/>
                    </mxGeometry>
                </mxCell>
                <mxCell id="49" value="" style="curved=1;endArrow=ERmany;html=1;entryX=0;entryY=0.5;entryDx=0;entryDy=0;exitX=0.75;exitY=0;exitDx=0;exitDy=0;endFill=0;" parent="1" source="4" target="24" edge="1">
                    <mxGeometry width="50" height="50" relative="1" as="geometry">
                        <mxPoint x="740" y="400" as="sourcePoint"/>
                        <mxPoint x="790" y="350" as="targetPoint"/>
                        <Array as="points">
                            <mxPoint x="690" y="260"/>
                            <mxPoint x="770" y="150"/>
                        </Array>
                    </mxGeometry>
                </mxCell>
                <mxCell id="50" value="" style="curved=1;endArrow=ERmany;html=1;entryX=0.135;entryY=0.696;entryDx=0;entryDy=0;exitX=1;exitY=0.25;exitDx=0;exitDy=0;endFill=0;entryPerimeter=0;" parent="1" source="5" target="24" edge="1">
                    <mxGeometry width="50" height="50" relative="1" as="geometry">
                        <mxPoint x="655" y="409" as="sourcePoint"/>
                        <mxPoint x="900" y="110" as="targetPoint"/>
                        <Array as="points">
                            <mxPoint x="820" y="500"/>
                            <mxPoint x="720" y="190"/>
                        </Array>
                    </mxGeometry>
                </mxCell>
                <mxCell id="52" value="" style="endArrow=none;html=1;exitX=1;exitY=0.5;exitDx=0;exitDy=0;entryX=0;entryY=0.5;entryDx=0;entryDy=0;endFill=0;startArrow=classic;startFill=1;" parent="1" source="27" edge="1">
                    <mxGeometry width="50" height="50" relative="1" as="geometry">
                        <mxPoint x="480" y="420" as="sourcePoint"/>
                        <mxPoint x="400" y="299" as="targetPoint"/>
                    </mxGeometry>
                </mxCell>
                <mxCell id="53" value="" style="endArrow=classic;html=1;exitX=1;exitY=0.5;exitDx=0;exitDy=0;endFill=1;entryX=0;entryY=0.5;entryDx=0;entryDy=0;" parent="1" target="25" edge="1">
                    <mxGeometry width="50" height="50" relative="1" as="geometry">
                        <mxPoint x="500" y="299" as="sourcePoint"/>
                        <mxPoint x="520" y="330" as="targetPoint"/>
                    </mxGeometry>
                </mxCell>
                <mxCell id="54" value="LIKES&lt;br&gt;ALBUM" style="shape=parallelogram;perimeter=parallelogramPerimeter;whiteSpace=wrap;html=1;fixedSize=1;" parent="1" vertex="1">
                    <mxGeometry x="390" y="269" width="120" height="60" as="geometry"/>
                </mxCell>
                <mxCell id="55" value="LIKES PISTAS" style="shape=parallelogram;perimeter=parallelogramPerimeter;whiteSpace=wrap;html=1;fixedSize=1;" parent="1" vertex="1">
                    <mxGeometry x="470" y="80" width="180" height="30" as="geometry"/>
                </mxCell>
                <mxCell id="56" value="COMMENTS PISTAS" style="shape=parallelogram;perimeter=parallelogramPerimeter;whiteSpace=wrap;html=1;fixedSize=1;" parent="1" vertex="1">
                    <mxGeometry x="480" y="30" width="180" height="30" as="geometry"/>
                </mxCell>
                <mxCell id="57" value="LIKES&lt;br&gt;LISTS" style="shape=parallelogram;perimeter=parallelogramPerimeter;whiteSpace=wrap;html=1;fixedSize=1;" parent="1" vertex="1">
                    <mxGeometry x="400" y="480" width="120" height="60" as="geometry"/>
                </mxCell>
                <mxCell id="59" value="" style="curved=1;endArrow=none;html=1;exitX=1;exitY=1;exitDx=0;exitDy=0;endFill=0;entryX=0.5;entryY=0;entryDx=0;entryDy=0;startArrow=classic;startFill=1;" parent="1" source="27" target="57" edge="1">
                    <mxGeometry width="50" height="50" relative="1" as="geometry">
                        <mxPoint x="140" y="290" as="sourcePoint"/>
                        <mxPoint x="480" y="476" as="targetPoint"/>
                        <Array as="points">
                            <mxPoint x="340" y="360"/>
                            <mxPoint x="470" y="380"/>
                        </Array>
                    </mxGeometry>
                </mxCell>
                <mxCell id="60" value="" style="endArrow=blockThin;html=1;exitX=0.5;exitY=1;exitDx=0;exitDy=0;endFill=1;entryX=0;entryY=0.5;entryDx=0;entryDy=0;" parent="1" source="57" target="26" edge="1">
                    <mxGeometry width="50" height="50" relative="1" as="geometry">
                        <mxPoint x="510" y="309" as="sourcePoint"/>
                        <mxPoint x="555" y="320.0000000000001" as="targetPoint"/>
                        <Array as="points">
                            <mxPoint x="460" y="700"/>
                        </Array>
                    </mxGeometry>
                </mxCell>
                <mxCell id="61" value="Category" style="ellipse;whiteSpace=wrap;html=1;" parent="1" vertex="1">
                    <mxGeometry x="979" y="279" width="120" height="40" as="geometry"/>
                </mxCell>
                <mxCell id="62" value="" style="endArrow=classic;html=1;entryX=0.09;entryY=0.208;entryDx=0;entryDy=0;entryPerimeter=0;exitX=1;exitY=0.75;exitDx=0;exitDy=0;" parent="1" source="3" target="61" edge="1">
                    <mxGeometry width="50" height="50" relative="1" as="geometry">
                        <mxPoint x="959" y="230.0000000000001" as="sourcePoint"/>
                        <mxPoint x="997.1599999999999" y="240.68000000000006" as="targetPoint"/>
                    </mxGeometry>
                </mxCell>
                <mxCell id="63" value="Duration" style="ellipse;whiteSpace=wrap;html=1;" parent="1" vertex="1">
                    <mxGeometry x="979" y="340" width="120" height="40" as="geometry"/>
                </mxCell>
                <mxCell id="64" value="" style="endArrow=classic;html=1;entryX=0.069;entryY=0.287;entryDx=0;entryDy=0;entryPerimeter=0;exitX=1;exitY=0.75;exitDx=0;exitDy=0;" parent="1" target="63" edge="1">
                    <mxGeometry width="50" height="50" relative="1" as="geometry">
                        <mxPoint x="929" y="250.0000000000001" as="sourcePoint"/>
                        <mxPoint x="969.8000000000002" y="312.31999999999994" as="targetPoint"/>
                    </mxGeometry>
                </mxCell>
                <mxCell id="65" value="Creation date" style="ellipse;whiteSpace=wrap;html=1;" parent="1" vertex="1">
                    <mxGeometry x="979" y="404" width="120" height="40" as="geometry"/>
                </mxCell>
                <mxCell id="66" value="" style="endArrow=classic;html=1;entryX=0.007;entryY=0.375;entryDx=0;entryDy=0;entryPerimeter=0;exitX=0.75;exitY=1;exitDx=0;exitDy=0;" parent="1" source="3" target="65" edge="1">
                    <mxGeometry width="50" height="50" relative="1" as="geometry">
                        <mxPoint x="939" y="260.0000000000001" as="sourcePoint"/>
                        <mxPoint x="997.2800000000002" y="361.48000000000025" as="targetPoint"/>
                    </mxGeometry>
                </mxCell>
                <mxCell id="67" value="" style="curved=1;endArrow=classic;html=1;exitX=0;exitY=0.5;exitDx=0;exitDy=0;entryX=1;entryY=0;entryDx=0;entryDy=0;" parent="1" source="55" edge="1">
                    <mxGeometry width="50" height="50" relative="1" as="geometry">
                        <mxPoint x="818.04" y="189.84000000000003" as="sourcePoint"/>
                        <mxPoint x="300" y="259" as="targetPoint"/>
                        <Array as="points">
                            <mxPoint x="370" y="140"/>
                        </Array>
                    </mxGeometry>
                </mxCell>
                <mxCell id="68" value="" style="curved=1;endArrow=classic;html=1;exitX=0;exitY=0.75;exitDx=0;exitDy=0;entryX=1;entryY=0;entryDx=0;entryDy=0;" parent="1" source="56" edge="1">
                    <mxGeometry width="50" height="50" relative="1" as="geometry">
                        <mxPoint x="470" y="86" as="sourcePoint"/>
                        <mxPoint x="290" y="250" as="targetPoint"/>
                        <Array as="points">
                            <mxPoint x="360" y="131"/>
                        </Array>
                    </mxGeometry>
                </mxCell>
                <mxCell id="69" value="" style="curved=1;endArrow=classic;html=1;entryX=0;entryY=0;entryDx=0;entryDy=0;exitX=1;exitY=0.5;exitDx=0;exitDy=0;" parent="1" source="55" target="24" edge="1">
                    <mxGeometry width="50" height="50" relative="1" as="geometry">
                        <mxPoint x="540" y="320" as="sourcePoint"/>
                        <mxPoint x="590" y="270" as="targetPoint"/>
                        <Array as="points">
                            <mxPoint x="740" y="80"/>
                        </Array>
                    </mxGeometry>
                </mxCell>
                <mxCell id="70" value="" style="curved=1;endArrow=classic;html=1;entryX=0.385;entryY=0.133;entryDx=0;entryDy=0;exitX=1;exitY=0.5;exitDx=0;exitDy=0;entryPerimeter=0;" parent="1" source="56" target="24" edge="1">
                    <mxGeometry width="50" height="50" relative="1" as="geometry">
                        <mxPoint x="650" y="105" as="sourcePoint"/>
                        <mxPoint x="879" y="110" as="targetPoint"/>
                        <Array as="points">
                            <mxPoint x="770" y="50"/>
                        </Array>
                    </mxGeometry>
                </mxCell>
                <mxCell id="73" value="Creation date" style="ellipse;whiteSpace=wrap;html=1;" parent="1" vertex="1">
                    <mxGeometry x="180" y="600" width="120" height="40" as="geometry"/>
                </mxCell>
                <mxCell id="74" value="" style="endArrow=classic;html=1;entryX=0.758;entryY=0.083;entryDx=0;entryDy=0;entryPerimeter=0;exitX=0.321;exitY=0.989;exitDx=0;exitDy=0;exitPerimeter=0;" parent="1" source="2" target="73" edge="1">
                    <mxGeometry width="50" height="50" relative="1" as="geometry">
                        <mxPoint x="292.68000000000006" y="454.18000000000006" as="sourcePoint"/>
                        <mxPoint x="253.15999999999985" y="549" as="targetPoint"/>
                    </mxGeometry>
                </mxCell>
                <mxCell id="76" value="Title" style="ellipse;whiteSpace=wrap;html=1;" parent="1" vertex="1">
                    <mxGeometry x="557.5" y="459" width="55" height="31" as="geometry"/>
                </mxCell>
                <mxCell id="77" value="BIBLIOTECA" style="rounded=1;whiteSpace=wrap;html=1;strokeColor=#ae4132;fillColor=#FF6666;" parent="1" vertex="1">
                    <mxGeometry x="750" y="720" width="120" height="60" as="geometry"/>
                </mxCell>
                <mxCell id="78" value="" style="endArrow=classic;html=1;entryX=0;entryY=0.5;entryDx=0;entryDy=0;exitX=0.25;exitY=1;exitDx=0;exitDy=0;endFill=1;startArrow=none;startFill=0;" parent="1" target="77" edge="1">
                    <mxGeometry width="50" height="50" relative="1" as="geometry">
                        <mxPoint x="337.9999999999998" y="444" as="sourcePoint"/>
                        <mxPoint x="190" y="740" as="targetPoint"/>
                        <Array as="points">
                            <mxPoint x="338" y="750"/>
                        </Array>
                    </mxGeometry>
                </mxCell>
                <mxCell id="79" value="" style="endArrow=none;html=1;entryX=1;entryY=0.5;entryDx=0;entryDy=0;exitX=0.5;exitY=0;exitDx=0;exitDy=0;endFill=0;startArrow=ERmany;startFill=0;" parent="1" source="24" target="77" edge="1">
                    <mxGeometry width="50" height="50" relative="1" as="geometry">
                        <mxPoint x="347.9999999999998" y="454" as="sourcePoint"/>
                        <mxPoint x="920" y="760" as="targetPoint"/>
                        <Array as="points">
                            <mxPoint x="889" y="10"/>
                            <mxPoint x="1140" y="10"/>
                            <mxPoint x="1140" y="750"/>
                        </Array>
                    </mxGeometry>
                </mxCell>
                <mxCell id="82" value="" style="endArrow=ERmany;html=1;exitX=0.25;exitY=0;exitDx=0;exitDy=0;entryX=1;entryY=0.5;entryDx=0;entryDy=0;endFill=0;" parent="1" source="77" target="26" edge="1">
                    <mxGeometry width="50" height="50" relative="1" as="geometry">
                        <mxPoint x="367.20000000000005" y="454.6600000000001" as="sourcePoint"/>
                        <mxPoint x="535.0000000000002" y="600" as="targetPoint"/>
                        <Array as="points">
                            <mxPoint x="780" y="700"/>
                        </Array>
                    </mxGeometry>
                </mxCell>
                <mxCell id="83" value="" style="endArrow=ERmany;html=1;exitX=0.5;exitY=0;exitDx=0;exitDy=0;entryX=1;entryY=0.5;entryDx=0;entryDy=0;endFill=0;" parent="1" source="77" target="25" edge="1">
                    <mxGeometry width="50" height="50" relative="1" as="geometry">
                        <mxPoint x="785" y="329" as="sourcePoint"/>
                        <mxPoint x="630" y="309" as="targetPoint"/>
                        <Array as="points">
                            <mxPoint x="810" y="310"/>
                        </Array>
                    </mxGeometry>
                </mxCell>
                <mxCell id="84" value="Description" style="ellipse;whiteSpace=wrap;html=1;" parent="1" vertex="1">
                    <mxGeometry x="625" y="459" width="85" height="31" as="geometry"/>
                </mxCell>
                <mxCell id="89" value="Title" style="ellipse;whiteSpace=wrap;html=1;" parent="1" vertex="1">
                    <mxGeometry x="520" y="510" width="55" height="30" as="geometry"/>
                </mxCell>
                <mxCell id="90" value="Description" style="ellipse;whiteSpace=wrap;html=1;" parent="1" vertex="1">
                    <mxGeometry x="584" y="510" width="85" height="30" as="geometry"/>
                </mxCell>
                <mxCell id="91" value="Creation date" style="ellipse;whiteSpace=wrap;html=1;" parent="1" vertex="1">
                    <mxGeometry x="660" y="360" width="100" height="33" as="geometry"/>
                </mxCell>
                <mxCell id="93" value="Creation date" style="ellipse;whiteSpace=wrap;html=1;" parent="1" vertex="1">
                    <mxGeometry x="650" y="630" width="100" height="30" as="geometry"/>
                </mxCell>
                <mxCell id="99" value="id_biblio" style="rhombus;whiteSpace=wrap;html=1;strokeColor=#6F0000;fontColor=#ffffff;fillColor=#FF3333;" parent="1" vertex="1">
                    <mxGeometry x="849" y="620" width="80" height="80" as="geometry"/>
                </mxCell>
                <mxCell id="100" value="" style="endArrow=classic;html=1;entryX=0.5;entryY=1;entryDx=0;entryDy=0;exitX=0.888;exitY=-0.011;exitDx=0;exitDy=0;exitPerimeter=0;" parent="1" source="77" target="99" edge="1">
                    <mxGeometry width="50" height="50" relative="1" as="geometry">
                        <mxPoint x="580" y="580" as="sourcePoint"/>
                        <mxPoint x="630" y="530" as="targetPoint"/>
                    </mxGeometry>
                </mxCell>
            </root>
        </mxGraphModel>
    </diagram>
</mxfile>